<?xml version="1.0" encoding="UTF-8" standalone="no"?><!DOCTYPE svg PUBLIC "-//W3C//DTD SVG 1.1//EN" "http://www.w3.org/Graphics/SVG/1.1/DTD/svg11.dtd"><svg width="100%" height="100%" viewBox="0 0 300 300" version="1.1" xmlns="http://www.w3.org/2000/svg" xmlns:xlink="http://www.w3.org/1999/xlink" xml:space="preserve" xmlns:serif="http://www.serif.com/" style="fill-rule:evenodd;clip-rule:evenodd;stroke-linejoin:round;stroke-miterlimit:2;"><path d="M170.158,150l-93.349,-93.348c-7.133,-7.439 -9.232,-18.958 -5.053,-28.085c4.077,-8.904 13.821,-14.682 23.516,-14.581c3.216,0.169 3.748,0.358 5.178,0.71c4.41,1.083 8.443,3.463 11.715,6.6l111.026,111.026c0.557,0.581 1.08,1.187 1.569,1.814c1.399,1.65 2.579,3.481 3.484,5.457c3.337,7.288 2.676,15.998 -1.272,22.987c-0.94,1.71 -2.092,3.31 -3.456,4.752c-0.107,0.116 -0.216,0.231 -0.325,0.346l-111.026,111.026c-9.206,8.827 -24.712,9.449 -34.211,1.075c-10.188,-8.983 -10.808,-26.354 -1.145,-36.431l93.349,-93.348Z" style="fill:#fff;"/></svg>