<svg clip-rule="evenodd" fill-rule="evenodd" stroke-linejoin="round" stroke-miterlimit="2" viewBox="0 0 221 72" xmlns="http://www.w3.org/2000/svg"><path d="m1335.29 146.929-4.35-11.133-4.77 11.185-7.42-19.432h2.91l4.82 13.556 3.22-8.453-1.98-5.103h2.47l5.18 13.272 4.59-13.272h2.68zm83.17-.825h-2.53v-19.199h.13l13.66 14.045-.05-13.478h2.5v19.251h-.08l-13.69-13.891zm-107.57-15.307c-.67-.361-1.38-.653-2.14-.877-.75-.223-1.47-.335-2.14-.335-1.01 0-1.81.228-2.41.683-.59.456-.89 1.078-.89 1.869 0 .773.35 1.404 1.05 1.894.69.489 1.69.975 2.97 1.456.97.343 1.78.717 2.44 1.121s1.21.962 1.65 1.675.66 1.619.66 2.719c0 .996-.25 1.898-.75 2.706-.5.807-1.21 1.443-2.13 1.907s-2 .695-3.23.695c-1.15 0-2.26-.184-3.33-.554-1.06-.369-2-.837-2.81-1.404l1.11-1.984c.64.481 1.4.889 2.3 1.224.89.335 1.72.502 2.5.502.99 0 1.86-.258 2.61-.773s1.12-1.28 1.12-2.293c0-.86-.31-1.542-.94-2.049s-1.51-.984-2.64-1.431c-1.05-.395-1.92-.781-2.62-1.159-.69-.378-1.29-.898-1.79-1.559-.49-.662-.74-1.491-.74-2.487 0-1.461.51-2.642 1.53-3.544s2.35-1.378 3.98-1.43c2.01 0 3.87.498 5.59 1.495zm51.7-.928h-9.62v5.669h8.59v2.397h-8.59v5.747h9.98v2.422h-12.48v-18.632h12.12zm44.5 0h-9.61v5.669h8.58v2.397h-8.58v5.747h9.97v2.422h-12.47v-18.632h12.11zm-29.66 16.235h-6.01v-18.632h5.11c2.32 0 4.24.46 5.76 1.379s2.63 2.104 3.32 3.556c.7 1.452 1.04 2.985 1.04 4.6 0 1.804-.42 3.398-1.26 4.781s-1.97 2.448-3.37 3.195c-1.41.748-2.94 1.121-4.59 1.121zm-.26-16.235h-3.25v13.813h3.02c1.37 0 2.6-.271 3.68-.812 1.09-.541 1.93-1.327 2.54-2.358s.92-2.259.92-3.685c0-1.46-.32-2.715-.96-3.763-.63-1.048-1.48-1.842-2.53-2.383-1.06-.542-2.2-.812-3.42-.812zm54.5-16.751c-1.04.849-2.68 1.698-4.93 2.547s-4.71 1.273-7.36 1.273c-4.25 0-7.94-.922-11.08-2.768s-5.54-4.328-7.2-7.447-2.49-6.543-2.49-10.271c0-4.098.83-7.752 2.49-10.963 1.66-3.212 3.99-5.713 6.98-7.503s6.44-2.685 10.35-2.685c2.48 0 4.77.332 6.87.996 2.1.665 3.95 1.495 5.54 2.492l-3.16 7.585c-2.91-2.214-5.9-3.322-8.97-3.322-2.07 0-4 .572-5.81 1.717-1.81 1.144-3.25 2.704-4.32 4.678-1.07 1.975-1.61 4.162-1.61 6.562 0 2.621.5 4.918 1.5 6.893.99 1.975 2.41 3.516 4.26 4.624 1.85 1.107 4.01 1.661 6.48 1.661 1.99 0 3.78-.323 5.37-.969s2.84-1.412 3.77-2.298zm-87.09 3.377h-33.7v-7.945h33.7zm23.04 0h-8.03v-40.751h12.35c5.06 0 8.98 1.227 11.77 3.682 2.78 2.454 4.18 5.804 4.18 10.049 0 2.51-.53 4.863-1.58 7.06-1.05 2.196-2.67 3.922-4.85 5.177l9.47 14.783h-9.36l-8.58-12.956h-5.37zm82.6 0h-8.03v-40.751h8.03v16.444h18.21v-16.444h8.03v40.751h-8.03v-16.555h-18.21zm-187.23 0h-7.45v-40.751h.05l19.85 28.143 20.32-28.143h.11v40.751h-7.72v-18.673l-12.77 18.141h-.1l-12.29-16.971zm81.59-16.318h-33.7v-7.946h33.7zm28.8-16.682h-5.76v12.292h5.7c2.18 0 3.77-.636 4.77-1.91.99-1.273 1.49-2.648 1.49-4.125s-.42-2.888-1.27-4.236c-.85-1.347-2.49-2.021-4.93-2.021zm-28.8.284h-33.7v-7.945h33.7z" fill="#2e2e2e" transform="translate(-1255.54 -75.3006)"/></svg>