<svg clip-rule="evenodd" fill-rule="evenodd" stroke-linecap="round" stroke-linejoin="round" stroke-miterlimit="1.5" viewBox="0 0 300 300" xmlns="http://www.w3.org/2000/svg"><g fill="none"><path d="m0 0h300v300h-300z"/><path d="m175.014 181.978c4.079-1.695 33.978-8.291 32.52-4.711" stroke="#2a2a2a" stroke-width="8"/><path d="m165.348 158.503s1.168 4.11 5.407 4.093c4.238-.017 26.727-6.484 31.17-3.491s-.386 5.998-2.409 8.23" stroke="#2a2a2a" stroke-width="8"/><path d="m152.647 109.51s46.779-2.966 47.64 10.021c.441 6.648-39.39 17.589-39.607 17.483-6.164-3.015-2.402.041-2.402.041s43.13-1.153 43.636 6.629c.389 5.976-9.756 8.379-9.756 8.379" stroke="#2a2a2a" stroke-width="8"/><path d="m196.633 85.643c-7.7 2.089-46.314 15.83-70.83-1.997-24.515-17.827-12.64-39.026-8.608-43.057.712-.712-68.87 14.705-62.707 40.401 4.328 18.044 74.959 96.511 125.385 148.074 21.02 21.492 64.571 10.416 74.759 8.839 10.503-1.626 14.188-4.414 11.513-13.805-4.912-17.244-22.292-18.557-37.047-24.872-9.555-4.089-27-18.247-32.447-32.641-8-21.141-13.15-45.592-6.882-59.27 7.395-16.135 9.152-13.173 6.864-21.672z" stroke="#2a2a2a" stroke-width="9.5"/><path d="m59.089 90.48c-7.341 3.539-22.275 18.082-23.139 27.433" stroke="#2a2a2a" stroke-width="9.5"/><path d="m69.463 105.351c-5.768 2.93-19.429 17.952-21.944 26.279" stroke="#2a2a2a" stroke-width="9.5"/><path d="m81.891 121.105c-4.24 1.458-19.241 14.82-23.4 24.73" stroke="#2a2a2a" stroke-width="9.5"/><path d="m93.066 134.498c-4.239 1.459-17.581 14.096-21.74 24.005" stroke="#2a2a2a" stroke-width="9.5"/><path d="m104.011 147.194c-4.239 1.458-17.503 15.186-19.523 23.822" stroke="#2a2a2a" stroke-width="9.5"/><path d="m114.523 159.105c-4.239 1.458-15.566 14.817-17.587 23.453" stroke="#2a2a2a" stroke-width="9.5"/><path d="m125.234 171.016c-4.239 1.459-14.883 13.287-16.903 21.923" stroke="#2a2a2a" stroke-width="8"/><path d="m137.955 184.914c-3.492 1.857-14.675 14.348-16.349 19.949" stroke="#2a2a2a" stroke-width="8"/><path d="m150 197.853c-3.492 1.858-14.579 13.56-15.851 18.141" stroke="#2a2a2a" stroke-width="8"/><path d="m160.551 209.021c-2.613 3.33-13.081 13.291-15.808 16.297" stroke="#2a2a2a" stroke-width="8"/><path d="m172.419 221.397c-3.084 2.985-12.216 11.548-14.141 15.802" stroke="#2a2a2a" stroke-width="6.5"/><path d="m184.294 232.891c-3.083 2.986-7.355 8.615-9.28 12.869" stroke="#2a2a2a" stroke-width="6.5"/><path d="m199.516 239.874c-.331 3.524-2.572 8.65-4.497 12.903" stroke="#2a2a2a" stroke-width="6.5"/><path d="m219.402 242.154c-.331 3.524-2.32 10.362-3.587 13.594" stroke="#2a2a2a" stroke-width="6.5"/><path d="m238.714 240.646c-.332 3.523-1.045 11.538-2.312 14.77" stroke="#2a2a2a" stroke-width="6.5"/><path d="m54.152 78.847c-8.365.272-31.393 11.25-22.769 34.169 8.623 22.919 122.629 119.987 129.168 126.236 24.454 23.372 106.226 33.388 106.433-9.954" stroke="#2a2a2a" stroke-width="9.5"/><path d="m114.523 40.565c12.992-4.762 19.2 21.382 5.595 38.282" stroke="#2a2a2a" stroke-width="8"/></g><circle cx="55.972" cy="254.129" fill="#2a2a2a" r="5.291"/><path d="m131.152 254.129c0-2.92-2.37-5.291-5.291-5.291h-50.073c-2.92 0-5.291 2.371-5.291 5.291s2.371 5.291 5.291 5.291h50.073c2.921 0 5.291-2.371 5.291-5.291z" fill="#2a2a2a"/><path d="m54.097 237.113c0-2.92-2.371-5.291-5.291-5.291h-24.632c-2.921 0-5.291 2.371-5.291 5.291s2.37 5.291 5.291 5.291h24.632c2.92 0 5.291-2.371 5.291-5.291z" fill="#2a2a2a"/><path d="m88.695 220.097c0-2.92-2.37-5.291-5.291-5.291h-37.616c-2.92 0-5.291 2.371-5.291 5.291s2.371 5.291 5.291 5.291h37.616c2.921 0 5.291-2.371 5.291-5.291z" fill="#2a2a2a"/><path d="m134.149 237.033c0-3.168-2.573-5.741-5.741-5.741h-26.729c-3.168 0-5.741 2.573-5.741 5.741 0 3.169 2.573 5.742 5.741 5.742h26.729c3.168 0 5.741-2.573 5.741-5.742z" fill="#2a2a2a"/></svg>